<svg width="240" height="240" viewBox="0 0 240 240" fill="none" xmlns="http://www.w3.org/2000/svg">
  <g stroke="currentColor" stroke-width="1.4" stroke-linecap="round" fill="none" opacity="0.9">
    <path d="M120 226V70"/>
    <path d="M120 150C120 150 96 148 82 128C68 108 74 84 74 84C74 84 100 92 110 114C120 136 120 150 120 150Z"/>
    <path d="M120 124C120 124 144 120 158 100C172 80 166 56 166 56C166 56 140 66 130 88C120 110 120 124 120 124Z"/>
    <path d="M120 96C120 96 100 92 90 76C80 60 86 42 86 42C86 42 106 52 114 68C122 84 120 96 120 96Z"/>
    <path d="M120 78C120 78 138 74 148 58C158 42 152 26 152 26C152 26 134 36 126 52C118 68 120 78 120 78Z"/>
    <path d="M120 70C120 62 123 54 129 48"/>
  </g>
</svg>
